<svg xmlns="http://www.w3.org/2000/svg" xmlns:xlink="http://www.w3.org/1999/xlink" width="25" height="25" viewBox="0 0 25 25"><defs><clipPath id="a"><rect width="25" height="25" fill="#ec681c"/></clipPath></defs><g clip-path="url(#a)"><g transform="translate(3.673 0.362)"><path d="M10.733,0A8.646,8.646,0,0,0,2.087,8.646a8.525,8.525,0,0,0,.074,1.075c.739,6.754,8.011,14.537,8.011,14.537a1.346,1.346,0,0,0,.375.3l.006,0,.242.077.242-.077.006,0a1.439,1.439,0,0,0,.375-.3s7.167-7.8,7.889-14.553A8.591,8.591,0,0,0,10.733,0Zm0,14.207a5.561,5.561,0,1,1,5.56-5.561A5.568,5.568,0,0,1,10.733,14.207Z" transform="translate(-2.087)" fill="#ec681c"/></g></g></svg>