<svg xmlns="http://www.w3.org/2000/svg" xmlns:xlink="http://www.w3.org/1999/xlink" width="18" height="18" viewBox="0 0 18 18"><defs><clipPath id="a"><rect width="18" height="18" transform="translate(-0.113)" fill="#ec681c"/></clipPath></defs><g transform="translate(0.113)" clip-path="url(#a)"><g transform="translate(0 0.02)"><g transform="translate(0 0)"><path d="M17.6,14.221l-2.78-2.78a1.449,1.449,0,0,0-2.044.038l-1.4,1.4-.276-.154a13.937,13.937,0,0,1-3.369-2.436A14.014,14.014,0,0,1,5.286,6.915c-.052-.094-.1-.184-.151-.27l.94-.939.462-.463A1.448,1.448,0,0,0,6.575,3.2L3.8.419A1.448,1.448,0,0,0,1.752.458l-.783.788.021.021A4.53,4.53,0,0,0,.344,2.406,4.721,4.721,0,0,0,.057,3.561c-.367,3.043,1.023,5.824,4.8,9.6,5.217,5.216,9.42,4.822,9.6,4.8a4.7,4.7,0,0,0,1.158-.291,4.515,4.515,0,0,0,1.135-.643l.017.015.794-.777A1.451,1.451,0,0,0,17.6,14.221Z" transform="translate(0 -0.016)" fill="#ec681c"/></g></g></g></svg>