<svg xmlns="http://www.w3.org/2000/svg" width="15.845" height="15.845" viewBox="0 0 15.845 15.845"><g transform="translate(0 0)"><path d="M213.443,210.221A3.221,3.221,0,1,1,210.221,207,3.221,3.221,0,0,1,213.443,210.221Zm0,0" transform="translate(-202.299 -202.299)" fill="#fff"/><path d="M150.941,137.712a3.2,3.2,0,0,0-1.834-1.834,5.347,5.347,0,0,0-1.794-.333c-1.019-.046-1.325-.056-3.905-.056s-2.886.01-3.905.056a5.351,5.351,0,0,0-1.794.333,3.2,3.2,0,0,0-1.834,1.834,5.349,5.349,0,0,0-.333,1.795c-.046,1.019-.056,1.325-.056,3.905s.01,2.886.056,3.905a5.347,5.347,0,0,0,.333,1.794,3.2,3.2,0,0,0,1.834,1.834,5.341,5.341,0,0,0,1.794.333c1.019.046,1.324.056,3.9.056s2.886-.01,3.905-.056a5.341,5.341,0,0,0,1.795-.333,3.2,3.2,0,0,0,1.834-1.834,5.352,5.352,0,0,0,.333-1.794c.046-1.019.056-1.325.056-3.905s-.01-2.886-.056-3.905A5.341,5.341,0,0,0,150.941,137.712Zm-7.533,10.662a4.962,4.962,0,1,1,4.962-4.962A4.962,4.962,0,0,1,143.407,148.374Zm5.159-8.961a1.16,1.16,0,1,1,1.16-1.16A1.16,1.16,0,0,1,148.566,139.412Zm0,0" transform="translate(-135.485 -135.489)" fill="#fff"/></g></svg>