<svg xmlns="http://www.w3.org/2000/svg" width="156.643" height="41.363" viewBox="0 0 156.643 41.363"><g transform="translate(0 0)"><path d="M24.664,154.229l-18.783,6.15a9.968,9.968,0,0,0-2.41,1.168,9.1,9.1,0,0,0-1.9,1.679,6.987,6.987,0,0,0-1.222,2.03,4.849,4.849,0,0,0-.318,2.2l2.1,20.7a8.047,8.047,0,0,0,1.08,3.335A7.3,7.3,0,0,0,5.56,193.92a7.656,7.656,0,0,0,3.33,1.144,8.954,8.954,0,0,0,3.877-.486l28.283-9.893a8.346,8.346,0,0,0,3.183-1.965,7.067,7.067,0,0,0,1.748-2.859,6.972,6.972,0,0,0,.228-3.239,8.07,8.07,0,0,0-1.271-3.172L34.73,158.078,9.9,166.316l3.438,14.274,18.378-6.272L29.3,169.381,17.873,173.24l-1.457-4.535,11.642-3.9a6.5,6.5,0,0,1,2.749-.359,4.75,4.75,0,0,1,1.943.64,5.2,5.2,0,0,1,1.216,1.005,4.466,4.466,0,0,1,.509.682l3.675,6.333a5.261,5.261,0,0,1,.4.9,4.906,4.906,0,0,1,.269,1.723,3.484,3.484,0,0,1-.723,2.03,5.393,5.393,0,0,1-2.624,1.717l-21.748,7.512a5.79,5.79,0,0,1-3.239.294,3.733,3.733,0,0,1-1.925-1.149,4.942,4.942,0,0,1-.922-1.534,5.372,5.372,0,0,1-.276-.959L4.669,167.366a3.179,3.179,0,0,1,.29-2.009A4.171,4.171,0,0,1,6.11,164a7.13,7.13,0,0,1,1.31-.809,7.781,7.781,0,0,1,.795-.33l23.952-7.889a6.963,6.963,0,0,0-1.637-.786,8.668,8.668,0,0,0-1.87-.395,9.638,9.638,0,0,0-1.987.007,9.966,9.966,0,0,0-2.009.429" transform="translate(-0.009 -153.745)" fill="#ec681c"/></g><g transform="translate(52.623 8.91)"><path d="M493.295,247.891H488.84V244.45h4.455Z" transform="translate(-461.7 -238.56)" fill="#fff"/><path d="M690.926,212.2a4.163,4.163,0,0,0-.586-1.9,4.423,4.423,0,0,0-.558-.7,3.517,3.517,0,0,0-.834-.622,4.709,4.709,0,0,0-1.154-.439,6.344,6.344,0,0,0-1.539-.165H667.61V212.2h18.06a.59.59,0,0,1,.339.083.58.58,0,0,1,.173.173.423.423,0,0,1,.073.238v1.429H672.28a6.526,6.526,0,0,0-1.547.165,4.511,4.511,0,0,0-1.154.439,3.641,3.641,0,0,0-.824.623,4.193,4.193,0,0,0-.558.7,4.267,4.267,0,0,0-.587,1.922v1.924a3.67,3.67,0,0,0,.2,1.263,3.5,3.5,0,0,0,.522.961,3.084,3.084,0,0,0,.742.687,5.219,5.219,0,0,0,.862.457,6.842,6.842,0,0,0,2.343.476h18.634v-5.77h.013V212.2Zm-4.672,7.694H672.848a.612.612,0,0,1-.33-.073.546.546,0,0,1-.165-.165.447.447,0,0,1-.073-.256v-.951a.445.445,0,0,1,.082-.284.438.438,0,0,1,.193-.139.749.749,0,0,1,.294-.054h13.406Z" transform="translate(-611.299 -208.367)" fill="#fff"/><path d="M847.1,213.955V212.1a4.3,4.3,0,0,0-.55-1.886,3.623,3.623,0,0,0-.522-.687,3.185,3.185,0,0,0-.786-.6,4.8,4.8,0,0,0-1.09-.421,5.636,5.636,0,0,0-1.447-.165H825.08v15.221H842.7a5.638,5.638,0,0,0,1.447-.166,4.773,4.773,0,0,0,1.09-.421,3.155,3.155,0,0,0,.786-.6,3.624,3.624,0,0,0,.522-.687,4.3,4.3,0,0,0,.55-1.886v-1.85a4.277,4.277,0,0,0-.55-1.868c-.026-.046-.062-.091-.091-.137.031-.047.065-.091.091-.137A4.251,4.251,0,0,0,847.1,213.955Zm-17.6-1.849h12.656a1.256,1.256,0,0,1,.284.055.414.414,0,0,1,.183.137.409.409,0,0,1,.083.266v.935a.339.339,0,0,1-.073.22.549.549,0,0,1-.165.166.576.576,0,0,1-.312.072H829.494Zm13.206,7.253a.406.406,0,0,1-.083.266.441.441,0,0,1-.183.139,1.183,1.183,0,0,1-.284.054H829.494v-1.85h12.656a.561.561,0,0,1,.312.073.528.528,0,0,1,.165.165.345.345,0,0,1,.073.22Z" transform="translate(-743.075 -208.35)" fill="#fff"/><path d="M345.16,221.889a4.4,4.4,0,0,1-.558.693,3.706,3.706,0,0,1-.822.62,4.543,4.543,0,0,1-1.142.439,6.383,6.383,0,0,1-1.534.165H327.149a6.306,6.306,0,0,1-1.535-.165,4.567,4.567,0,0,1-1.142-.439,3.657,3.657,0,0,1-.821-.62,4.3,4.3,0,0,1-.556-.693,4.116,4.116,0,0,1-.584-1.9v-7.672a3.615,3.615,0,0,1,.2-1.261,3.507,3.507,0,0,1,.521-.959,3,3,0,0,1,.741-.684,5.442,5.442,0,0,1,.857-.459,6.767,6.767,0,0,1,2.32-.475h18.6v3.838H327.733a.656.656,0,0,0-.336.072.5.5,0,0,0-.175.165.443.443,0,0,0-.073.256V219.5a.436.436,0,0,0,.292.437.746.746,0,0,0,.292.055h12.785a.606.606,0,0,0,.339-.082.586.586,0,0,0,.175-.173.435.435,0,0,0,.073-.238v-1.424h-8.529v-3.838h13.166v5.753A4.173,4.173,0,0,1,345.16,221.889Z" transform="translate(-322.51 -208.459)" fill="#fff"/><path d="M555.432,219.852H540.484a.63.63,0,0,1-.312-.064.459.459,0,0,1-.165-.155.368.368,0,0,1-.073-.238V208.37H535.52v11.484a3.644,3.644,0,0,0,.193,1.245,3.465,3.465,0,0,0,.494.925,2.988,2.988,0,0,0,.7.659,5.045,5.045,0,0,0,.814.449,6.215,6.215,0,0,0,2.216.475h15.5v-3.755Z" transform="translate(-500.763 -208.367)" fill="#fff"/></g><g transform="translate(53.538 29.238)"><path d="M330.479,333.8a2.951,2.951,0,0,1,2.1.744,2.527,2.527,0,0,1,.8,1.934,2.486,2.486,0,0,1-.782,1.921,3,3,0,0,1-2.113.72H328.12V333.8Zm.013.767h-1.537v3.786h1.537a2.084,2.084,0,0,0,1.488-.507,1.989,1.989,0,0,0-.018-2.748A2.053,2.053,0,0,0,330.492,334.567Z" transform="translate(-328.12 -333.658)" fill="#ec681c"/><path d="M368.45,339.059V333.73h.847v5.329Z" transform="translate(-361.869 -333.599)" fill="#ec681c"/><path d="M386.145,336.331v-.765h2.191v1.607a2.971,2.971,0,0,1-1.2,1.039,3.937,3.937,0,0,1-1.718.356,3.58,3.58,0,0,1-2.4-.795,2.64,2.64,0,0,1,.007-4.034,3.568,3.568,0,0,1,2.4-.8,3.983,3.983,0,0,1,1.635.318,3.037,3.037,0,0,1,1.186.933l-.641.46a2.259,2.259,0,0,0-.912-.693,3.122,3.122,0,0,0-1.266-.251,2.7,2.7,0,0,0-1.787.579,1.887,1.887,0,0,0,0,2.926,2.706,2.706,0,0,0,1.79.579,3.2,3.2,0,0,0,1.266-.248,1.67,1.67,0,0,0,.813-.635v-.573h-1.353Z" transform="translate(-373.275 -332.938)" fill="#ec681c"/><path d="M429.8,339.059V333.73h.847v5.329Z" transform="translate(-413.209 -333.599)" fill="#ec681c"/><path d="M442.452,339.126v-4.575H440.21v-.741h5.316v.741h-2.247v4.575Z" transform="translate(-421.92 -333.666)" fill="#ec681c"/><path d="M468.83,339.126l2.7-5.316h.524l2.727,5.316h-.891l-.69-1.351h-2.808l-.685,1.351Zm1.925-2.054h2.079l-1.033-2.035Z" transform="translate(-445.87 -333.666)" fill="#ec681c"/><path d="M510.15,339.118V333.8h.834v4.551h3.947v.765H510.15Z" transform="translate(-480.448 -333.658)" fill="#ec681c"/><path d="M572.565,336.331v-.765h2.191v1.607a2.971,2.971,0,0,1-1.2,1.039,3.937,3.937,0,0,1-1.718.356,3.579,3.579,0,0,1-2.4-.795,2.64,2.64,0,0,1,.007-4.034,3.568,3.568,0,0,1,2.4-.8,3.977,3.977,0,0,1,1.635.318,3.048,3.048,0,0,1,1.186.933l-.641.46a2.27,2.27,0,0,0-.912-.693,3.124,3.124,0,0,0-1.268-.251,2.7,2.7,0,0,0-1.787.579,1.885,1.885,0,0,0,0,2.926,2.7,2.7,0,0,0,1.79.579,3.212,3.212,0,0,0,1.268-.248,1.672,1.672,0,0,0,.813-.635v-.573h-1.354Z" transform="translate(-529.277 -332.938)" fill="#ec681c"/><path d="M617.064,336.853v2.322h-.834v-5.3h3.662a1.909,1.909,0,0,1,1.276.392,1.354,1.354,0,0,1,.46,1.088,1.432,1.432,0,0,1-.364.981,1.547,1.547,0,0,1-.95.507l1.475,2.335h-.9l-1.508-2.322h-2.315Zm0-.777h2.826a1.006,1.006,0,0,0,.658-.188.741.741,0,0,0,0-1.067,1.025,1.025,0,0,0-.658-.184h-2.826Z" transform="translate(-569.219 -333.717)" fill="#ec681c"/><path d="M658.96,338.558a3.412,3.412,0,0,1-2.335-.8,2.679,2.679,0,0,1,0-4.03,3.861,3.861,0,0,1,4.688,0,2.686,2.686,0,0,1,0,4.037A3.439,3.439,0,0,1,658.96,338.558Zm0-.778a2.582,2.582,0,0,0,1.738-.576,1.926,1.926,0,0,0,0-2.927,2.883,2.883,0,0,0-3.463,0,1.939,1.939,0,0,0,0,2.931A2.561,2.561,0,0,0,658.96,337.779Z" transform="translate(-602.257 -332.93)" fill="#ec681c"/><path d="M703.972,333.88h.834v3.405a1.222,1.222,0,0,0,.361,1.033,2.6,2.6,0,0,0,1.431.268,2.634,2.634,0,0,0,1.438-.268,1.224,1.224,0,0,0,.361-1.033V333.88h.829V337.5a1.605,1.605,0,0,1-.62,1.413,4.9,4.9,0,0,1-4.024.007,1.613,1.613,0,0,1-.61-1.42V333.88Z" transform="translate(-642.642 -333.725)" fill="#ec681c"/><path d="M748.274,336.794v2.322h-.834V333.8h3.865a1.914,1.914,0,0,1,1.279.388,1.354,1.354,0,0,1,.457,1.092,1.427,1.427,0,0,1-.454,1.09,1.684,1.684,0,0,1-1.194.424Zm0-.777h3.032a1,1,0,0,0,.651-.188.749.749,0,0,0,.01-1.064.924.924,0,0,0-.623-.188h-3.069Z" transform="translate(-679.019 -333.658)" fill="#ec681c"/></g></svg>