<svg xmlns="http://www.w3.org/2000/svg" width="175.464" height="46.332" viewBox="0 0 175.464 46.332"><g transform="translate(0 0)"><path d="M27.626,154.287,6.587,161.176a11.166,11.166,0,0,0-2.7,1.309,10.2,10.2,0,0,0-2.129,1.881,7.826,7.826,0,0,0-1.369,2.274,5.431,5.431,0,0,0-.356,2.469L2.38,192.293a9.014,9.014,0,0,0,1.21,3.736,8.173,8.173,0,0,0,2.637,2.718,8.575,8.575,0,0,0,3.73,1.281,10.03,10.03,0,0,0,4.343-.545L45.981,188.4a9.348,9.348,0,0,0,3.566-2.2A7.916,7.916,0,0,0,51.5,183a7.81,7.81,0,0,0,.256-3.628,9.04,9.04,0,0,0-1.424-3.553L38.9,158.6l-27.809,9.228,3.851,15.989L35.53,176.79l-2.714-5.531-12.8,4.323L18.387,170.5l13.041-4.365a7.28,7.28,0,0,1,3.08-.4,5.32,5.32,0,0,1,2.177.717,5.829,5.829,0,0,1,1.362,1.126,5,5,0,0,1,.57.764l4.116,7.094a5.89,5.89,0,0,1,.444,1.009,5.5,5.5,0,0,1,.3,1.93,3.9,3.9,0,0,1-.81,2.274,6.041,6.041,0,0,1-2.939,1.923l-24.36,8.415a6.486,6.486,0,0,1-3.628.329,4.181,4.181,0,0,1-2.157-1.287,5.535,5.535,0,0,1-1.033-1.718,6.016,6.016,0,0,1-.309-1.075L5.229,169a3.561,3.561,0,0,1,.325-2.25,4.672,4.672,0,0,1,1.289-1.517,7.988,7.988,0,0,1,1.468-.907,8.726,8.726,0,0,1,.89-.369l26.83-8.837a7.8,7.8,0,0,0-1.833-.881A9.71,9.71,0,0,0,32.1,153.8a10.8,10.8,0,0,0-2.226.007,11.166,11.166,0,0,0-2.25.481" transform="translate(-0.009 -153.745)" fill="#ec681c"/></g><g transform="translate(58.946 9.981)"><path d="M493.83,248.3h-4.99V244.45h4.99Z" transform="translate(-458.439 -237.852)" fill="#484848"/><path d="M693.727,212.656a4.664,4.664,0,0,0-.656-2.133,4.957,4.957,0,0,0-.625-.78,3.94,3.94,0,0,0-.934-.7,5.273,5.273,0,0,0-1.292-.492,7.1,7.1,0,0,0-1.723-.185H667.61v4.286h20.23a.66.66,0,0,1,.38.093.65.65,0,0,1,.194.194.473.473,0,0,1,.082.267v1.6H672.841a7.31,7.31,0,0,0-1.733.185,5.056,5.056,0,0,0-1.292.492,4.077,4.077,0,0,0-.923.7,4.692,4.692,0,0,0-.625.78,4.78,4.78,0,0,0-.658,2.153v2.155a4.11,4.11,0,0,0,.225,1.415,3.917,3.917,0,0,0,.585,1.077,3.453,3.453,0,0,0,.832.769,5.847,5.847,0,0,0,.965.512,7.664,7.664,0,0,0,2.625.534h20.873v-6.463h.015v-6.461Zm-5.233,8.618H673.477a.686.686,0,0,1-.369-.082.613.613,0,0,1-.185-.185.5.5,0,0,1-.082-.287v-1.066a.5.5,0,0,1,.091-.318.491.491,0,0,1,.216-.155.839.839,0,0,1,.329-.06h15.017Z" transform="translate(-604.534 -208.366)" fill="#484848"/><path d="M849.74,214.628v-2.073a4.822,4.822,0,0,0-.616-2.113,4.066,4.066,0,0,0-.585-.77,3.568,3.568,0,0,0-.881-.667,5.384,5.384,0,0,0-1.221-.472,6.312,6.312,0,0,0-1.621-.185H825.08V225.4h19.736a6.317,6.317,0,0,0,1.621-.186,5.352,5.352,0,0,0,1.221-.472,3.533,3.533,0,0,0,.881-.667,4.066,4.066,0,0,0,.585-.769,4.815,4.815,0,0,0,.616-2.113v-2.073a4.794,4.794,0,0,0-.616-2.093c-.029-.051-.069-.1-.1-.154.035-.053.073-.1.1-.154A4.764,4.764,0,0,0,849.74,214.628Zm-19.716-2.071H844.2a1.4,1.4,0,0,1,.318.062.464.464,0,0,1,.2.154.458.458,0,0,1,.093.3v1.047a.38.38,0,0,1-.082.247.617.617,0,0,1-.185.186.645.645,0,0,1-.349.08H830.024Zm14.792,8.124a.454.454,0,0,1-.093.3.494.494,0,0,1-.2.155,1.324,1.324,0,0,1-.318.06H830.024v-2.073H844.2a.628.628,0,0,1,.349.082.593.593,0,0,1,.185.185.387.387,0,0,1,.082.247Z" transform="translate(-733.222 -208.35)" fill="#484848"/><path d="M347.881,223.5a4.939,4.939,0,0,1-.625.777,4.153,4.153,0,0,1-.921.695,5.089,5.089,0,0,1-1.279.492,7.151,7.151,0,0,1-1.718.185H327.706a7.064,7.064,0,0,1-1.72-.185,5.117,5.117,0,0,1-1.279-.492,4.1,4.1,0,0,1-.919-.695,4.817,4.817,0,0,1-.623-.777,4.61,4.61,0,0,1-.654-2.128v-8.594a4.048,4.048,0,0,1,.225-1.413,3.927,3.927,0,0,1,.583-1.075,3.363,3.363,0,0,1,.83-.766,6.093,6.093,0,0,1,.96-.514,7.58,7.58,0,0,1,2.6-.532h20.829v4.3H328.361a.735.735,0,0,0-.376.08.564.564,0,0,0-.2.185.5.5,0,0,0-.082.287v7.49a.488.488,0,0,0,.327.49.836.836,0,0,0,.327.062h14.321a.679.679,0,0,0,.38-.091.658.658,0,0,0,.2-.194.488.488,0,0,0,.082-.267v-1.6h-9.554v-4.3h14.748v6.445A4.674,4.674,0,0,1,347.881,223.5Z" transform="translate(-322.51 -208.456)" fill="#484848"/><path d="M557.824,221.232H541.08a.706.706,0,0,1-.349-.071.514.514,0,0,1-.185-.174.411.411,0,0,1-.082-.267V208.37H535.52v12.864a4.079,4.079,0,0,0,.216,1.395,3.879,3.879,0,0,0,.554,1.036,3.347,3.347,0,0,0,.779.738,5.648,5.648,0,0,0,.912.5,6.962,6.962,0,0,0,2.482.532h17.36v-4.206Z" transform="translate(-496.587 -208.366)" fill="#484848"/></g></svg>