<svg xmlns="http://www.w3.org/2000/svg" xmlns:xlink="http://www.w3.org/1999/xlink" width="25" height="25" viewBox="0 0 25 25"><defs><clipPath id="a"><rect width="25" height="25" transform="translate(0.171)" fill="#ec681c"/></clipPath></defs><g transform="translate(-0.171)" clip-path="url(#a)"><g transform="translate(0 3.594)"><path d="M17.338,3.053c0-.029.02-.056.018-.085L9.728,10.32l7.62,7.116c0-.051-.009-.1-.009-.154V3.053Z" transform="translate(7.643 -1.261)" fill="#ec681c"/><path d="M15.68,7.719l-3.114,3a.815.815,0,0,1-1.12.009L8.339,7.83.67,15.223a1.767,1.767,0,0,0,.6.119h21.47a1.766,1.766,0,0,0,.857-.236Z" transform="translate(0.526 2.471)" fill="#ec681c"/><path d="M12.225,13.49,23.868,2.274a1.765,1.765,0,0,0-.9-.262H1.5a1.769,1.769,0,0,0-1.126.42Z" transform="translate(0.293 -2.012)" fill="#ec681c"/><path d="M0,3.169V17.124a1.772,1.772,0,0,0,.077.462l7.575-7.294Z" transform="translate(0 -1.104)" fill="#ec681c"/></g></g></svg>