<svg xmlns="http://www.w3.org/2000/svg" width="20.763" height="11.847" viewBox="0 0 20.763 11.847"><g transform="translate(0 0)"><g transform="translate(0)"><path d="M20.577,120.491a9.257,9.257,0,0,0-2.062-2.385c-1.739-1.614-1.505-1.352.589-4.144,1.276-1.7,1.786-2.738,1.626-3.182-.152-.423-1.09-.311-1.09-.311l-3.12.018a.713.713,0,0,0-.4.071.879.879,0,0,0-.275.335,18.072,18.072,0,0,1-1.154,2.435c-1.39,2.361-1.947,2.485-2.174,2.339-.528-.341-.4-1.373-.4-2.1,0-2.288.347-3.242-.676-3.488a5.356,5.356,0,0,0-1.457-.145,6.74,6.74,0,0,0-2.59.265c-.356.174-.629.562-.462.584a1.4,1.4,0,0,1,.921.463,3.006,3.006,0,0,1,.309,1.413s.184,2.693-.43,3.028c-.422.23-1-.239-2.239-2.381a19.972,19.972,0,0,1-1.115-2.31.922.922,0,0,0-.257-.347,1.294,1.294,0,0,0-.48-.193l-2.967.018s-.445.013-.609.206c-.145.173-.012.528-.012.528s2.323,5.434,4.952,8.173a7.126,7.126,0,0,0,5.151,2.346H11.4a1.046,1.046,0,0,0,.566-.248.9.9,0,0,0,.17-.545s-.025-1.665.749-1.91,1.74,1.609,2.777,2.322a1.964,1.964,0,0,0,1.38.42l2.773-.039S21.265,121.632,20.577,120.491Z" transform="translate(0 -109.924)" fill="#fff"/></g></g></svg>